<mxfile host="Electron" modified="2024-04-23T08:07:00.436Z" agent="Mozilla/5.0 (Macintosh; Intel Mac OS X 10_15_7) AppleWebKit/537.36 (KHTML, like Gecko) draw.io/24.0.4 Chrome/120.0.6099.109 Electron/28.1.0 Safari/537.36" etag="2R1KlI5USpaRHMfrTlYq" version="24.0.4" type="device">
  <diagram id="C5RBs43oDa-KdzZeNtuy" name="Page-1">
    <mxGraphModel dx="954" dy="724" grid="0" gridSize="10" guides="1" tooltips="1" connect="1" arrows="1" fold="1" page="1" pageScale="1" pageWidth="1200" pageHeight="1920" math="0" shadow="0">
      <root>
        <mxCell id="WIyWlLk6GJQsqaUBKTNV-0" />
        <mxCell id="WIyWlLk6GJQsqaUBKTNV-1" parent="WIyWlLk6GJQsqaUBKTNV-0" />
        <mxCell id="dXIJIlHrfRlpiI6UBKxE-7" value="" style="edgeStyle=none;curved=1;rounded=0;orthogonalLoop=1;jettySize=auto;html=1;fontSize=12;startSize=8;endSize=8;" parent="WIyWlLk6GJQsqaUBKTNV-1" source="dXIJIlHrfRlpiI6UBKxE-2" target="dXIJIlHrfRlpiI6UBKxE-6" edge="1">
          <mxGeometry relative="1" as="geometry" />
        </mxCell>
        <mxCell id="dXIJIlHrfRlpiI6UBKxE-2" value="开始" style="rounded=1;whiteSpace=wrap;html=1;" parent="WIyWlLk6GJQsqaUBKTNV-1" vertex="1">
          <mxGeometry x="169.5" y="58" width="98" height="42" as="geometry" />
        </mxCell>
        <mxCell id="dXIJIlHrfRlpiI6UBKxE-9" value="" style="edgeStyle=none;curved=1;rounded=0;orthogonalLoop=1;jettySize=auto;html=1;fontSize=12;startSize=8;endSize=8;" parent="WIyWlLk6GJQsqaUBKTNV-1" source="dXIJIlHrfRlpiI6UBKxE-6" target="dXIJIlHrfRlpiI6UBKxE-8" edge="1">
          <mxGeometry relative="1" as="geometry" />
        </mxCell>
        <mxCell id="dXIJIlHrfRlpiI6UBKxE-6" value="读取container.xml" style="rhombus;whiteSpace=wrap;html=1;rounded=1;" parent="WIyWlLk6GJQsqaUBKTNV-1" vertex="1">
          <mxGeometry x="172" y="153" width="93" height="80" as="geometry" />
        </mxCell>
        <mxCell id="dXIJIlHrfRlpiI6UBKxE-11" value="" style="edgeStyle=none;curved=1;rounded=0;orthogonalLoop=1;jettySize=auto;html=1;fontSize=12;startSize=8;endSize=8;" parent="WIyWlLk6GJQsqaUBKTNV-1" source="dXIJIlHrfRlpiI6UBKxE-8" target="dXIJIlHrfRlpiI6UBKxE-10" edge="1">
          <mxGeometry relative="1" as="geometry" />
        </mxCell>
        <mxCell id="dXIJIlHrfRlpiI6UBKxE-8" value="content.opf" style="whiteSpace=wrap;html=1;rounded=1;" parent="WIyWlLk6GJQsqaUBKTNV-1" vertex="1">
          <mxGeometry x="165" y="282" width="107" height="42" as="geometry" />
        </mxCell>
        <mxCell id="dXIJIlHrfRlpiI6UBKxE-16" value="" style="edgeStyle=none;curved=1;rounded=0;orthogonalLoop=1;jettySize=auto;html=1;fontSize=12;startSize=8;endSize=8;" parent="WIyWlLk6GJQsqaUBKTNV-1" source="dXIJIlHrfRlpiI6UBKxE-10" target="dXIJIlHrfRlpiI6UBKxE-15" edge="1">
          <mxGeometry relative="1" as="geometry" />
        </mxCell>
        <mxCell id="dXIJIlHrfRlpiI6UBKxE-10" value="解析" style="rhombus;whiteSpace=wrap;html=1;rounded=1;" parent="WIyWlLk6GJQsqaUBKTNV-1" vertex="1">
          <mxGeometry x="331" y="263" width="80" height="80" as="geometry" />
        </mxCell>
        <mxCell id="dXIJIlHrfRlpiI6UBKxE-13" value="&lt;div&gt;&lt;span style=&quot;font-size: 16px; background-color: initial;&quot;&gt;&lt;font color=&quot;#e06c75&quot;&gt;metadata&lt;/font&gt;&lt;/span&gt;&lt;/div&gt;&lt;ol&gt;&lt;li&gt;&lt;span style=&quot;background-color: initial;&quot;&gt;&lt;font color=&quot;#ff0000&quot;&gt;*&lt;/font&gt; language&lt;/span&gt;&lt;/li&gt;&lt;li&gt;&lt;span style=&quot;background-color: initial;&quot;&gt;&lt;font color=&quot;#ff3333&quot;&gt;*&lt;/font&gt;&amp;nbsp;title&lt;/span&gt;&lt;/li&gt;&lt;li&gt;&lt;span style=&quot;background-color: initial;&quot;&gt;&lt;font color=&quot;#ff3333&quot;&gt;*&lt;/font&gt;&amp;nbsp;meta&lt;/span&gt;&lt;/li&gt;&lt;li&gt;...others,&amp;nbsp;&lt;a href=&quot;https://www.w3.org/TR/epub-33/#sec-metadata-elem&quot;&gt;https://www.w3.org/TR/epub-33/#sec-metadata-elem&lt;/a&gt;&lt;/li&gt;&lt;/ol&gt;&lt;div&gt;包含了各种元数据&lt;/div&gt;" style="whiteSpace=wrap;html=1;rounded=1;align=left;spacingTop=12;spacingLeft=12;spacingBottom=12;spacingRight=12;" parent="WIyWlLk6GJQsqaUBKTNV-1" vertex="1">
          <mxGeometry x="823" y="303" width="283" height="153" as="geometry" />
        </mxCell>
        <mxCell id="UM-UNYJGmKxb3h7m3u2y-0" style="edgeStyle=none;curved=1;rounded=0;orthogonalLoop=1;jettySize=auto;html=1;exitX=1;exitY=1;exitDx=0;exitDy=0;entryX=0;entryY=0.5;entryDx=0;entryDy=0;fontSize=12;startSize=8;endSize=8;" edge="1" parent="WIyWlLk6GJQsqaUBKTNV-1" source="dXIJIlHrfRlpiI6UBKxE-15" target="dXIJIlHrfRlpiI6UBKxE-25">
          <mxGeometry relative="1" as="geometry" />
        </mxCell>
        <mxCell id="dXIJIlHrfRlpiI6UBKxE-15" value="&lt;font style=&quot;font-size: 19px;&quot;&gt;package&lt;/font&gt;&lt;div&gt;&lt;font style=&quot;font-size: 16px;&quot;&gt;attribute:&lt;/font&gt;&lt;/div&gt;&lt;div style=&quot;&quot;&gt;&lt;ol&gt;&lt;li&gt;&lt;span style=&quot;&quot;&gt;&lt;a style=&quot;text-decoration-color: var(--a-normal-underline); text-decoration-skip-ink: none; text-decoration-thickness: 2px; font-family: sans-serif; background-color: rgb(236, 246, 255);&quot; href=&quot;https://www.w3.org/TR/epub-33/#attrdef-package-unique-identifier&quot;&gt;&lt;code style=&quot;font-family: Menlo, Consolas, &amp;quot;DejaVu Sans Mono&amp;quot;, Monaco, monospace; hyphens: none; font-variant-numeric: normal; font-variant-east-asian: normal; font-variant-alternates: normal; font-variant-position: normal; orphans: 3; widows: 3; break-before: avoid;&quot;&gt;unique-identifier&lt;/code&gt;&amp;nbsp;&lt;/a&gt;&lt;br&gt;&lt;/span&gt;&lt;/li&gt;&lt;li&gt;&lt;a style=&quot;text-decoration-color: var(--a-normal-underline); text-decoration-skip-ink: none; text-decoration-thickness: 2px; font-family: sans-serif; background-color: rgb(236, 246, 255);&quot; href=&quot;https://www.w3.org/TR/epub-33/#attrdef-package-version&quot;&gt;&lt;code style=&quot;font-family: Menlo, Consolas, &amp;quot;DejaVu Sans Mono&amp;quot;, Monaco, monospace; hyphens: none; font-variant-numeric: normal; font-variant-east-asian: normal; font-variant-alternates: normal; font-variant-position: normal; orphans: 3; widows: 3; break-before: avoid;&quot;&gt;version&lt;/code&gt;&amp;nbsp;&lt;/a&gt;&lt;br&gt;&lt;/li&gt;&lt;/ol&gt;&lt;div&gt;&lt;font style=&quot;font-size: 16px;&quot;&gt;content&lt;/font&gt;&lt;font style=&quot;font-size: 19px;&quot;&gt;:&lt;/font&gt;&lt;/div&gt;&lt;div&gt;&lt;font style=&quot;font-size: 19px;&quot;&gt;&lt;div style=&quot;font-size: 12px;&quot;&gt;&lt;div&gt;&lt;span style=&quot;font-family: sans-serif;&quot;&gt;&lt;span style=&quot;white-space: pre;&quot;&gt;&#x9;&lt;/span&gt;In this order:&lt;/span&gt;&lt;/div&gt;&lt;div&gt;&lt;/div&gt;&lt;/div&gt;&lt;/font&gt;&lt;/div&gt;&lt;/div&gt;&lt;blockquote style=&quot;margin: 0 0 0 40px; border: none; padding: 0px;&quot;&gt;&lt;code style=&quot;font-family: Menlo, Consolas, &amp;quot;DejaVu Sans Mono&amp;quot;, Monaco, monospace; hyphens: none; font-variant-numeric: normal; font-variant-east-asian: normal; font-variant-alternates: normal; font-variant-position: normal; orphans: 3; widows: 3; break-before: avoid;&quot;&gt;&lt;a style=&quot;border-bottom: 1px solid rgb(153, 153, 204); text-decoration-line: none; text-decoration-color: var(--a-normal-underline); text-decoration-skip-ink: none;&quot; id=&quot;ref-for-dfn-metadata-1&quot; class=&quot;internalDFN&quot; href=&quot;https://www.w3.org/TR/epub-33/#dfn-metadata&quot; data-link-type=&quot;element&quot;&gt;&lt;code style=&quot;font-family: Menlo, Consolas, &amp;quot;DejaVu Sans Mono&amp;quot;, Monaco, monospace; hyphens: none; font-variant-numeric: normal; font-variant-east-asian: normal; font-variant-alternates: normal; font-variant-position: normal; break-before: avoid;&quot;&gt;metadata&lt;/code&gt;&lt;/a&gt;&lt;/code&gt;&amp;nbsp;&lt;code style=&quot;font-family: Menlo, Consolas, &amp;quot;DejaVu Sans Mono&amp;quot;, Monaco, monospace; hyphens: none; font-variant-numeric: normal; font-variant-east-asian: normal; font-variant-alternates: normal; font-variant-position: normal; orphans: 3; widows: 3; break-before: avoid;&quot;&gt;[exactly 1]&lt;br&gt;&lt;/code&gt;&lt;code style=&quot;font-family: Menlo, Consolas, &amp;quot;DejaVu Sans Mono&amp;quot;, Monaco, monospace; hyphens: none; font-variant-numeric: normal; font-variant-east-asian: normal; font-variant-alternates: normal; font-variant-position: normal; orphans: 3; widows: 3; break-before: avoid;&quot;&gt;&lt;a style=&quot;border-bottom: 1px solid rgb(153, 153, 204); text-decoration-line: none; text-decoration-color: var(--a-normal-underline); text-decoration-skip-ink: none;&quot; id=&quot;ref-for-dfn-manifest-3&quot; class=&quot;internalDFN&quot; href=&quot;https://www.w3.org/TR/epub-33/#dfn-manifest&quot; data-link-type=&quot;element&quot;&gt;&lt;code style=&quot;font-family: Menlo, Consolas, &amp;quot;DejaVu Sans Mono&amp;quot;, Monaco, monospace; hyphens: none; font-variant-numeric: normal; font-variant-east-asian: normal; font-variant-alternates: normal; font-variant-position: normal; break-before: avoid;&quot;&gt;manifest&lt;/code&gt;&lt;/a&gt;&lt;/code&gt;&amp;nbsp;&lt;code style=&quot;font-family: Menlo, Consolas, &amp;quot;DejaVu Sans Mono&amp;quot;, Monaco, monospace; hyphens: none; font-variant-numeric: normal; font-variant-east-asian: normal; font-variant-alternates: normal; font-variant-position: normal; orphans: 3; widows: 3; break-before: avoid;&quot;&gt;[exactly 1]&lt;br&gt;&lt;/code&gt;&lt;code style=&quot;font-family: Menlo, Consolas, &amp;quot;DejaVu Sans Mono&amp;quot;, Monaco, monospace; hyphens: none; font-variant-numeric: normal; font-variant-east-asian: normal; font-variant-alternates: normal; font-variant-position: normal; orphans: 3; widows: 3; break-before: avoid;&quot;&gt;&lt;a style=&quot;border-bottom: 1px solid rgb(153, 153, 204); text-decoration-line: none; text-decoration-color: var(--a-normal-underline); text-decoration-skip-ink: none;&quot; id=&quot;ref-for-dfn-spine-2&quot; class=&quot;internalDFN&quot; href=&quot;https://www.w3.org/TR/epub-33/#dfn-spine&quot; data-link-type=&quot;element&quot;&gt;&lt;code style=&quot;font-family: Menlo, Consolas, &amp;quot;DejaVu Sans Mono&amp;quot;, Monaco, monospace; hyphens: none; font-variant-numeric: normal; font-variant-east-asian: normal; font-variant-alternates: normal; font-variant-position: normal; break-before: avoid;&quot;&gt;spine&lt;/code&gt;&lt;/a&gt;&lt;/code&gt;&amp;nbsp;&lt;code style=&quot;font-family: Menlo, Consolas, &amp;quot;DejaVu Sans Mono&amp;quot;, Monaco, monospace; hyphens: none; font-variant-numeric: normal; font-variant-east-asian: normal; font-variant-alternates: normal; font-variant-position: normal; orphans: 3; widows: 3; break-before: avoid;&quot;&gt;[exactly 1]&lt;br&gt;&lt;/code&gt;&lt;a style=&quot;text-decoration-color: var(--a-normal-underline); text-decoration-skip-ink: none;&quot; href=&quot;https://www.w3.org/TR/epub-33/#sec-opf2-guide&quot;&gt;&lt;code style=&quot;font-family: Menlo, Consolas, &amp;quot;DejaVu Sans Mono&amp;quot;, Monaco, monospace; hyphens: none; font-variant-numeric: normal; font-variant-east-asian: normal; font-variant-alternates: normal; font-variant-position: normal; orphans: 3; widows: 3; break-before: avoid;&quot;&gt;guide&lt;/code&gt;&amp;nbsp;&lt;/a&gt;&lt;code style=&quot;font-family: Menlo, Consolas, &amp;quot;DejaVu Sans Mono&amp;quot;, Monaco, monospace; hyphens: none; font-variant-numeric: normal; font-variant-east-asian: normal; font-variant-alternates: normal; font-variant-position: normal; orphans: 3; widows: 3; break-before: avoid;&quot;&gt;[0 or 1]&lt;/code&gt;&amp;nbsp;&lt;a style=&quot;text-transform: uppercase; text-decoration-color: var(--a-normal-underline); text-decoration-skip-ink: none;&quot; class=&quot;legacy&quot; href=&quot;https://www.w3.org/TR/epub-33/#sec-pkg-legacy-intro&quot;&gt;(LEGACY)&lt;br&gt;&lt;/a&gt;&lt;a style=&quot;text-decoration-color: var(--a-normal-underline); text-decoration-skip-ink: none;&quot; href=&quot;https://www.w3.org/TR/epub-33/#sec-opf-bindings&quot;&gt;&lt;code style=&quot;font-family: Menlo, Consolas, &amp;quot;DejaVu Sans Mono&amp;quot;, Monaco, monospace; hyphens: none; font-variant-numeric: normal; font-variant-east-asian: normal; font-variant-alternates: normal; font-variant-position: normal; orphans: 3; widows: 3; break-before: avoid;&quot;&gt;bindings&lt;/code&gt;&amp;nbsp;&lt;/a&gt;&lt;code style=&quot;font-family: Menlo, Consolas, &amp;quot;DejaVu Sans Mono&amp;quot;, Monaco, monospace; hyphens: none; font-variant-numeric: normal; font-variant-east-asian: normal; font-variant-alternates: normal; font-variant-position: normal; orphans: 3; widows: 3; break-before: avoid;&quot;&gt;[0 or 1]&lt;/code&gt;&amp;nbsp;&lt;a style=&quot;text-transform: uppercase; text-decoration-color: var(--a-normal-underline); text-decoration-skip-ink: none;&quot; class=&quot;deprecated&quot; href=&quot;https://www.w3.org/TR/epub-33/#deprecated&quot;&gt;(DEPRECATED)&lt;br&gt;&lt;/a&gt;&lt;code style=&quot;font-family: Menlo, Consolas, &amp;quot;DejaVu Sans Mono&amp;quot;, Monaco, monospace; hyphens: none; font-variant-numeric: normal; font-variant-east-asian: normal; font-variant-alternates: normal; font-variant-position: normal; orphans: 3; widows: 3; break-before: avoid;&quot;&gt;&lt;a style=&quot;border-bottom: 1px solid rgb(153, 153, 204); text-decoration-line: none; text-decoration-color: var(--a-normal-underline); text-decoration-skip-ink: none;&quot; id=&quot;ref-for-dfn-collection-4&quot; class=&quot;internalDFN&quot; href=&quot;https://www.w3.org/TR/epub-33/#dfn-collection&quot; data-link-type=&quot;element&quot;&gt;&lt;code style=&quot;font-family: Menlo, Consolas, &amp;quot;DejaVu Sans Mono&amp;quot;, Monaco, monospace; hyphens: none; font-variant-numeric: normal; font-variant-east-asian: normal; font-variant-alternates: normal; font-variant-position: normal; break-before: avoid;&quot;&gt;collection&lt;/code&gt;&lt;/a&gt;&lt;/code&gt;&amp;nbsp;&lt;code style=&quot;font-family: Menlo, Consolas, &amp;quot;DejaVu Sans Mono&amp;quot;, Monaco, monospace; hyphens: none; font-variant-numeric: normal; font-variant-east-asian: normal; font-variant-alternates: normal; font-variant-position: normal; orphans: 3; widows: 3; break-before: avoid;&quot;&gt;[0 or more]&lt;/code&gt;&lt;/blockquote&gt;&lt;div style=&quot;&quot;&gt;&lt;font style=&quot;font-size: 12px;&quot;&gt;&lt;/font&gt;&lt;font style=&quot;font-size: 12px;&quot;&gt;&lt;/font&gt;&lt;font style=&quot;font-size: 12px;&quot;&gt;&lt;/font&gt;&lt;font style=&quot;font-size: 12px;&quot;&gt;&lt;/font&gt;&lt;font style=&quot;font-size: 12px;&quot;&gt;&lt;/font&gt;&lt;/div&gt;" style="html=1;rounded=1;align=left;padding=12;flipV=0;flipH=1;spacingTop=12;spacingBottom=12;spacingLeft=12;spacingRight=12;labelBorderColor=none;" parent="WIyWlLk6GJQsqaUBKTNV-1" vertex="1">
          <mxGeometry x="465" y="195" width="286" height="235.63" as="geometry" />
        </mxCell>
        <mxCell id="dXIJIlHrfRlpiI6UBKxE-24" style="edgeStyle=none;curved=1;rounded=0;orthogonalLoop=1;jettySize=auto;html=1;exitX=1;exitY=0.75;exitDx=0;exitDy=0;entryX=-0.007;entryY=0.432;entryDx=0;entryDy=0;entryPerimeter=0;fontSize=12;startSize=8;endSize=8;" parent="WIyWlLk6GJQsqaUBKTNV-1" source="dXIJIlHrfRlpiI6UBKxE-15" target="dXIJIlHrfRlpiI6UBKxE-13" edge="1">
          <mxGeometry relative="1" as="geometry" />
        </mxCell>
        <mxCell id="dXIJIlHrfRlpiI6UBKxE-25" value="&lt;div&gt;&lt;span style=&quot;color: rgb(224, 108, 117); white-space: pre; background-color: initial;&quot;&gt;&lt;font style=&quot;font-size: 16px;&quot; face=&quot;Helvetica&quot;&gt;manifest&lt;/font&gt;&lt;/span&gt;&lt;/div&gt;&lt;ol&gt;&lt;li&gt;&lt;span style=&quot;background-color: initial;&quot;&gt;ncx/nav&amp;nbsp; 提供了目录,ncx适用于Epub2&amp;nbsp;,&amp;nbsp;nav适用于Epub3&lt;/span&gt;&lt;/li&gt;&lt;li&gt;&lt;span style=&quot;background-color: initial;&quot;&gt;cover-image 提供了出版物的封面&lt;br&gt;&lt;/span&gt;&lt;/li&gt;&lt;li&gt;...更多内容的可查&lt;a href=&quot;https://www.w3.org/TR/epub-33/#app-item-properties-vocab&quot;&gt;https://www.w3.org/TR/epub-33/#app-item-properties-vocab&lt;/a&gt;&lt;/li&gt;&lt;/ol&gt;&lt;div&gt;包含了所有的资源文件&lt;/div&gt;" style="whiteSpace=wrap;html=1;rounded=1;align=left;spacingTop=12;spacingLeft=12;spacingBottom=12;spacingRight=12;" parent="WIyWlLk6GJQsqaUBKTNV-1" vertex="1">
          <mxGeometry x="822.25" y="486" width="284.5" height="149" as="geometry" />
        </mxCell>
        <mxCell id="UM-UNYJGmKxb3h7m3u2y-1" style="edgeStyle=none;curved=1;rounded=0;orthogonalLoop=1;jettySize=auto;html=1;exitX=1;exitY=1;exitDx=0;exitDy=0;fontSize=12;startSize=8;endSize=8;" edge="1" parent="WIyWlLk6GJQsqaUBKTNV-1" source="dXIJIlHrfRlpiI6UBKxE-15" target="dXIJIlHrfRlpiI6UBKxE-15">
          <mxGeometry relative="1" as="geometry" />
        </mxCell>
      </root>
    </mxGraphModel>
  </diagram>
</mxfile>
